<svg width="496" height="304" viewBox="0 0 496 304" fill="none" xmlns="http://www.w3.org/2000/svg">
<path d="M480 0H16C7.2 0 0 7.2 0 16V288C0 296.8 7.2 304 16 304H480C488.8 304 496 296.8 496 288V16C496 7.2 488.8 0 480 0Z" fill="#FFCE54"/>
<path d="M112 136V151.92C112 168.32 121.92 182.472 136.08 188.64L136 188.8V208H120C106.8 208 96 218.72 96 232V239.6C67.12 221.12 48 188.8 48 152C48 94.56 94.64 48 152 48C209.44 48 256 94.56 256 152C256 188.8 236.88 221.12 208 239.6V232C208 218.72 197.28 208 184 208H168V188.64C182.08 182.4 192 168.32 192 151.92V136V120V119.92L200 112.008L152 96.008L104 112.008L112 120V136Z" fill="#434A54"/>
<path d="M368 64H392V88H368V64Z" fill="#656D78"/>
<path d="M392 88H416V112H392V88Z" fill="#656D78"/>
<path d="M344 88H368V112H344V88Z" fill="#656D78"/>
<path d="M296 88H320V112H296V88Z" fill="#656D78"/>
<path d="M320 64H344V88H320V64Z" fill="#656D78"/>
<path d="M104 112.008L152 96.008L200 112.008L192 127.928V128.008H112L104 112.008Z" fill="#545C66"/>
<path d="M168 208V216L152 208L136 216V208V196.808L136.08 196.648C140.96 198.728 146.32 199.928 152 199.928C157.68 199.928 163.12 198.728 168 196.648V208Z" fill="#F5F7FA"/>
<path d="M112 144.008C112 144.008 125.36 152.008 152 152.008C177.44 152.008 190.8 144.648 192 144.008V159.928C192 176.328 182.08 190.408 168 196.648C163.12 198.728 157.68 199.928 152 199.928C146.32 199.928 140.96 198.728 136.08 196.648C121.92 190.48 112 176.328 112 159.928V144.008Z" fill="#EAC6BB"/>
<path d="M96 232C96 218.72 106.8 208 120 208H136V216L152 208L168 216V208H184C197.28 208 208 218.72 208 232V239.6C191.84 250 172.64 256 152 256C131.44 256 112.16 250 96 239.6V232Z" fill="#E6E9ED"/>
<path d="M152 152.008C125.36 152.008 112 144.008 112 144.008V128.008H192V144.008C190.8 144.648 177.44 152.008 152 152.008Z" fill="#656D78"/>
<path d="M447.992 200.064H304C299.576 200.064 296 196.488 296 192.064C296 187.64 299.576 184.064 304 184.064H447.992C452.416 184.064 455.992 187.64 455.992 192.064C455.992 196.488 452.416 200.064 447.992 200.064V200.064Z" fill="#F6BB42"/>
<path d="M447.992 224.048H304C299.576 224.048 296 220.472 296 216.048C296 211.624 299.576 208.048 304 208.048H447.992C452.416 208.048 455.992 211.624 455.992 216.048C455.992 220.472 452.416 224.048 447.992 224.048V224.048Z" fill="#F6BB42"/>
<path d="M384.176 248.032H304C299.576 248.032 296 244.456 296 240.032C296 235.608 299.576 232.032 304 232.032H384.176C388.6 232.032 392.176 235.608 392.176 240.032C392.176 244.456 388.6 248.032 384.176 248.032Z" fill="#F6BB42"/>
<path d="M304 160C299.576 160 296 156.424 296 152V144C296 139.576 299.576 136 304 136C308.424 136 312 139.576 312 144V152C312 156.424 308.424 160 304 160Z" fill="#F5F7FA"/>
<path d="M328 160C323.576 160 320 156.424 320 152V144C320 139.576 323.576 136 328 136C332.424 136 336 139.576 336 144V152C336 156.424 332.424 160 328 160Z" fill="#F5F7FA"/>
<path d="M352 160C347.576 160 344 156.424 344 152V144C344 139.576 347.576 136 352 136C356.424 136 360 139.576 360 144V152C360 156.424 356.424 160 352 160Z" fill="#F5F7FA"/>
<path d="M376 160C371.576 160 368 156.424 368 152V144C368 139.576 371.576 136 376 136C380.424 136 384 139.576 384 144V152C384 156.424 380.424 160 376 160Z" fill="#F5F7FA"/>
<path d="M400 160C395.576 160 392 156.424 392 152V144C392 139.576 395.576 136 400 136C404.424 136 408 139.576 408 144V152C408 156.424 404.424 160 400 160Z" fill="#F5F7FA"/>
<path d="M424 160C419.576 160 416 156.424 416 152V144C416 139.576 419.576 136 424 136C428.424 136 432 139.576 432 144V152C432 156.424 428.424 160 424 160Z" fill="#F5F7FA"/>
<path d="M448 160C443.576 160 440 156.424 440 152V144C440 139.576 443.576 136 448 136C452.424 136 456 139.576 456 144V152C456 156.424 452.424 160 448 160Z" fill="#F5F7FA"/>
</svg>
