<svg id="Capa_1" enable-background="new 0 0 497 497" height="512" viewBox="0 0 497 497" width="512" xmlns="http://www.w3.org/2000/svg"><path d="m472.619 411.013v-260.785c0-12.965-10.511-23.476-23.476-23.476h-400.286c-12.965 0-23.476 10.511-23.476 23.476v260.786l225.206 40z" fill="#26a6fe"/><path d="m449.143 126.752h-30c12.965 0 23.476 10.51 23.476 23.476v260.786h30v-260.786c0-12.966-10.511-23.476-23.476-23.476z" fill="#0593fc"/><path d="m60.381 411.013v-235.987c0-7.331 5.943-13.274 13.274-13.274h349.69c7.331 0 13.274 5.943 13.274 13.274v235.987l-187.619 40z" fill="#fff3ef"/><path d="m423.345 161.752h-30c7.331 0 13.274 5.943 13.274 13.274v235.987h30v-235.987c0-7.331-5.943-13.274-13.274-13.274z" fill="#f1f0f0"/><path d="m458.946 460.847h-443.892c-8.314 0-15.054-6.74-15.054-15.054v-22.067c0-7.037 5.705-12.742 12.742-12.742h174.051l61.706 20 61.707-20h151.051c7.037 0 12.742 5.705 12.742 12.742v22.067c.001 8.314-6.739 15.054-15.053 15.054z" fill="#0593fc"/><path d="m484.258 410.984h-30c7.037 0 12.742 5.705 12.742 12.742v22.067c0 8.314-6.74 15.054-15.054 15.054h30c8.314 0 15.054-6.74 15.054-15.054v-22.067c0-7.037-5.705-12.742-12.742-12.742z" fill="#0182fc"/><path d="m285.275 435.915h-73.55c-13.769 0-24.932-11.162-24.932-24.932h123.413c.001 13.77-11.162 24.932-24.931 24.932z" fill="#0473ce"/><path d="m247.145 36.153c-64.97 0-117.639 52.669-117.639 117.639v54.912c0 15.467 12.538 28.005 28.005 28.005h56.035l23.834 53.282c4.34 7.517 15.189 7.517 19.529 0l23.834-53.282h56.035c15.467 0 28.005-12.538 28.005-28.005v-54.911c.001-64.971-52.667-117.64-117.638-117.64z" fill="#05e39c"/><path d="m247.145 36.153c-5.082 0-10.088.323-15 .948 57.887 7.367 102.639 56.803 102.639 116.692v54.911c0 15.467-12.538 28.005-28.005 28.005h30c15.467 0 28.005-12.539 28.005-28.005v-54.911c0-64.971-52.668-117.64-117.639-117.64z" fill="#00c285"/><path d="m326.804 370.108h-156.751c-13.45 0-24.354-10.904-24.354-24.354 0-13.45 10.904-24.354 24.354-24.354h156.751c13.45 0 24.354 10.904 24.354 24.354 0 13.451-10.904 24.354-24.354 24.354z" fill="#fed2a4"/><path d="m326.804 321.4h-30c13.45 0 24.354 10.904 24.354 24.354 0 13.45-10.904 24.354-24.354 24.354h30c13.45 0 24.354-10.904 24.354-24.354 0-13.45-10.904-24.354-24.354-24.354z" fill="#ffbd86"/><path d="m220.421 321.4h55.512v48.708h-55.512z" fill="#ffbd86"/><circle cx="247.145" cy="142.786" fill="#fff3ef" r="58"/><path d="m240.627 164.037c-.112 0-.226-.003-.339-.008-2.141-.097-4.138-1.104-5.487-2.77l-10.336-12.751c-2.608-3.218-2.114-7.941 1.104-10.549 3.219-2.609 7.941-2.113 10.549 1.104l5.02 6.192 24.37-25.056c2.886-2.968 7.634-3.036 10.605-.147 2.969 2.888 3.035 7.636.146 10.606l-30.256 31.108c-1.415 1.455-3.355 2.271-5.376 2.271z" fill="#07b27b"/></svg>