<svg width="2057" height="226" viewBox="0 0 2057 226" fill="none" xmlns="http://www.w3.org/2000/svg">
<path d="M214.913 186.899V68.3129C214.913 62.4174 210.134 57.6377 204.238 57.6377H22.2166C16.3211 57.6377 11.5414 62.4174 11.5414 68.3129V186.9L113.949 205.089L214.913 186.899Z" fill="#26A6FE"/>
<path d="M204.238 57.6377H190.596C196.492 57.6377 201.271 62.4169 201.271 68.3129V186.9H214.913V68.3129C214.913 62.4169 210.134 57.6377 204.238 57.6377V57.6377Z" fill="#0593FC"/>
<path d="M27.6005 186.899V79.5893C27.6005 76.2557 30.303 73.5532 33.6366 73.5532H192.65C195.984 73.5532 198.687 76.2557 198.687 79.5893V186.899L113.371 205.088L27.6005 186.899Z" fill="#FFF3EF"/>
<path d="M192.507 73.5532H178.865C182.199 73.5532 184.901 76.2557 184.901 79.5893V186.899H198.543V79.5893C198.543 76.2557 195.841 73.5532 192.507 73.5532V73.5532Z" fill="#F1F0F0"/>
<path d="M208.696 209.56H6.84548C3.06487 209.56 0 206.495 0 202.715V192.68C0 189.48 2.59423 186.886 5.79415 186.886H84.9401L113 195.981L141.059 186.886H209.747C212.947 186.886 215.541 189.48 215.541 192.68V202.715C215.541 206.495 212.476 209.56 208.696 209.56Z" fill="#0593FC"/>
<path d="M220.206 186.886H206.564C209.764 186.886 212.358 189.48 212.358 192.68V202.715C212.358 206.495 209.293 209.56 205.513 209.56H219.155C222.935 209.56 226 206.495 226 202.715V192.68C226 189.48 223.406 186.886 220.206 186.886Z" fill="#0182FC"/>
<path d="M129.723 198.223H96.2774C90.0162 198.223 84.9401 193.147 84.9401 186.886H141.059C141.06 193.147 135.984 198.223 129.723 198.223Z" fill="#0473CE"/>
<path d="M112.384 16.4398C82.8402 16.4398 58.8901 40.3899 58.8901 69.9336V94.9036C58.8901 101.937 64.5915 107.638 71.6247 107.638H97.1055L107.943 131.867C109.917 135.285 114.85 135.285 116.824 131.867L127.662 107.638H153.143C160.176 107.638 165.877 101.937 165.877 94.9036V69.934C165.878 40.3899 141.928 16.4398 112.384 16.4398V16.4398Z" fill="#05E39C"/>
<path d="M112.384 16.4398C110.073 16.4398 107.797 16.5867 105.563 16.8709C131.886 20.2209 152.236 42.7008 152.236 69.934V94.9036C152.236 101.937 146.534 107.638 139.501 107.638H153.143C160.176 107.638 165.878 101.936 165.878 94.9036V69.934C165.878 40.3899 141.928 16.4398 112.384 16.4398V16.4398Z" fill="#00C285"/>
<path d="M112.384 91.3031C126.95 91.3031 138.758 79.4949 138.758 64.9288C138.758 50.3627 126.95 38.5546 112.384 38.5546C97.8177 38.5546 86.0096 50.3627 86.0096 64.9288C86.0096 79.4949 97.8177 91.3031 112.384 91.3031Z" fill="#FFF3EF"/>
<path d="M109.42 74.5923C109.369 74.5923 109.317 74.5909 109.266 74.5886C108.292 74.5445 107.384 74.0866 106.771 73.329L102.071 67.5308C100.885 66.0675 101.109 63.9198 102.573 62.7339C104.036 61.5475 106.184 61.773 107.37 63.2359L109.652 66.0516L120.734 54.6579C122.046 53.3082 124.205 53.2773 125.556 54.591C126.907 55.9043 126.937 58.0633 125.623 59.4139L111.865 73.5596C111.221 74.2212 110.339 74.5923 109.42 74.5923V74.5923Z" fill="#07B27B"/>
<path d="M277.203 132.938L266.234 144.75V174H245.141V71.625H266.234V118.031L275.516 105.305L301.602 71.625H327.547L291.195 117.117L328.602 174H303.5L277.203 132.938ZM414.031 71.625V139.055C414.031 150.258 410.516 159.117 403.484 165.633C396.5 172.148 386.938 175.406 374.797 175.406C362.844 175.406 353.352 172.242 346.32 165.914C339.289 159.586 335.703 150.891 335.562 139.828V71.625H356.656V139.195C356.656 145.898 358.25 150.797 361.438 153.891C364.672 156.938 369.125 158.461 374.797 158.461C386.656 158.461 392.68 152.227 392.867 139.758V71.625H414.031ZM431.328 174V71.625H462.828C471.828 71.625 479.867 73.6641 486.945 77.7422C494.07 81.7734 499.625 87.5391 503.609 95.0391C507.594 102.492 509.586 110.977 509.586 120.492V125.203C509.586 134.719 507.617 143.18 503.68 150.586C499.789 157.992 494.281 163.734 487.156 167.812C480.031 171.891 471.992 173.953 463.039 174H431.328ZM452.422 88.7109V157.055H462.617C470.867 157.055 477.172 154.359 481.531 148.969C485.891 143.578 488.117 135.867 488.211 125.836V120.422C488.211 110.016 486.055 102.141 481.742 96.7969C477.43 91.4062 471.125 88.7109 462.828 88.7109H452.422ZM562.883 136.523H546.078V174H524.984V71.625H563.023C575.117 71.625 584.445 74.3203 591.008 79.7109C597.57 85.1016 600.852 92.7188 600.852 102.562C600.852 109.547 599.328 115.383 596.281 120.07C593.281 124.711 588.711 128.414 582.57 131.18L604.719 173.016V174H582.078L562.883 136.523ZM546.078 119.438H563.094C568.391 119.438 572.492 118.102 575.398 115.43C578.305 112.711 579.758 108.984 579.758 104.25C579.758 99.4219 578.375 95.625 575.609 92.8594C572.891 90.0938 568.695 88.7109 563.023 88.7109H546.078V119.438ZM674.75 152.906H637.766L630.734 174H608.305L646.414 71.625H665.961L704.281 174H681.852L674.75 152.906ZM643.461 135.82H669.055L656.188 97.5L643.461 135.82ZM782.469 88.7109H751.109V174H730.016V88.7109H699.078V71.625H782.469V88.7109ZM906.57 139.898C905.773 150.914 901.695 159.586 894.336 165.914C887.023 172.242 877.367 175.406 865.367 175.406C852.242 175.406 841.906 171 834.359 162.188C826.859 153.328 823.109 141.188 823.109 125.766V119.508C823.109 109.664 824.844 100.992 828.312 93.4922C831.781 85.9922 836.727 80.25 843.148 76.2656C849.617 72.2344 857.117 70.2188 865.648 70.2188C877.461 70.2188 886.977 73.3828 894.195 79.7109C901.414 86.0391 905.586 94.9219 906.711 106.359H885.617C885.102 99.75 883.25 94.9688 880.062 92.0156C876.922 89.0156 872.117 87.5156 865.648 87.5156C858.617 87.5156 853.344 90.0469 849.828 95.1094C846.359 100.125 844.578 107.93 844.484 118.523V126.258C844.484 137.32 846.148 145.406 849.477 150.516C852.852 155.625 858.148 158.18 865.367 158.18C871.883 158.18 876.734 156.703 879.922 153.75C883.156 150.75 885.008 146.133 885.477 139.898H906.57ZM1004.52 125.133C1004.52 135.211 1002.73 144.047 999.172 151.641C995.609 159.234 990.5 165.094 983.844 169.219C977.234 173.344 969.641 175.406 961.062 175.406C952.578 175.406 945.008 173.367 938.352 169.289C931.695 165.211 926.539 159.398 922.883 151.852C919.227 144.258 917.375 135.539 917.328 125.695V120.633C917.328 110.555 919.133 101.695 922.742 94.0547C926.398 86.3672 931.531 80.4844 938.141 76.4062C944.797 72.2812 952.391 70.2188 960.922 70.2188C969.453 70.2188 977.023 72.2812 983.633 76.4062C990.289 80.4844 995.422 86.3672 999.031 94.0547C1002.69 101.695 1004.52 110.531 1004.52 120.562V125.133ZM983.141 120.492C983.141 109.758 981.219 101.602 977.375 96.0234C973.531 90.4453 968.047 87.6562 960.922 87.6562C953.844 87.6562 948.383 90.4219 944.539 95.9531C940.695 101.438 938.75 109.5 938.703 120.141V125.133C938.703 135.586 940.625 143.695 944.469 149.461C948.312 155.227 953.844 158.109 961.062 158.109C968.141 158.109 973.578 155.344 977.375 149.812C981.172 144.234 983.094 136.125 983.141 125.484V120.492ZM1047.41 71.625L1073.7 145.875L1099.86 71.625H1127.56V174H1106.4V146.016L1108.51 97.7109L1080.88 174H1066.39L1038.83 97.7812L1040.94 146.016V174H1019.84V71.625H1047.41ZM1167.08 137.93V174H1145.98V71.625H1185.92C1193.61 71.625 1200.36 73.0312 1206.17 75.8438C1212.03 78.6562 1216.53 82.6641 1219.67 87.8672C1222.81 93.0234 1224.38 98.9062 1224.38 105.516C1224.38 115.547 1220.94 123.469 1214.05 129.281C1207.2 135.047 1197.71 137.93 1185.57 137.93H1167.08ZM1167.08 120.844H1185.92C1191.5 120.844 1195.74 119.531 1198.65 116.906C1201.6 114.281 1203.08 110.531 1203.08 105.656C1203.08 100.641 1201.6 96.5859 1198.65 93.4922C1195.7 90.3984 1191.62 88.8047 1186.41 88.7109H1167.08V120.844ZM1316.42 71.625V139.055C1316.42 150.258 1312.91 159.117 1305.88 165.633C1298.89 172.148 1289.33 175.406 1277.19 175.406C1265.23 175.406 1255.74 172.242 1248.71 165.914C1241.68 159.586 1238.09 150.891 1237.95 139.828V71.625H1259.05V139.195C1259.05 145.898 1260.64 150.797 1263.83 153.891C1267.06 156.938 1271.52 158.461 1277.19 158.461C1289.05 158.461 1295.07 152.227 1295.26 139.758V71.625H1316.42ZM1410.78 88.7109H1379.42V174H1358.33V88.7109H1327.39V71.625H1410.78V88.7109ZM1484.47 129.633H1443.97V157.055H1491.5V174H1422.88V71.625H1491.36V88.7109H1443.97V113.109H1484.47V129.633ZM1541.77 136.523H1524.97V174H1503.88V71.625H1541.91C1554.01 71.625 1563.34 74.3203 1569.9 79.7109C1576.46 85.1016 1579.74 92.7188 1579.74 102.562C1579.74 109.547 1578.22 115.383 1575.17 120.07C1572.17 124.711 1567.6 128.414 1561.46 131.18L1583.61 173.016V174H1560.97L1541.77 136.523ZM1524.97 119.438H1541.98C1547.28 119.438 1551.38 118.102 1554.29 115.43C1557.2 112.711 1558.65 108.984 1558.65 104.25C1558.65 99.4219 1557.27 95.625 1554.5 92.8594C1551.78 90.0938 1547.59 88.7109 1541.91 88.7109H1524.97V119.438ZM1712.07 139.898C1711.27 150.914 1707.2 159.586 1699.84 165.914C1692.52 172.242 1682.87 175.406 1670.87 175.406C1657.74 175.406 1647.41 171 1639.86 162.188C1632.36 153.328 1628.61 141.188 1628.61 125.766V119.508C1628.61 109.664 1630.34 100.992 1633.81 93.4922C1637.28 85.9922 1642.23 80.25 1648.65 76.2656C1655.12 72.2344 1662.62 70.2188 1671.15 70.2188C1682.96 70.2188 1692.48 73.3828 1699.7 79.7109C1706.91 86.0391 1711.09 94.9219 1712.21 106.359H1691.12C1690.6 99.75 1688.75 94.9688 1685.56 92.0156C1682.42 89.0156 1677.62 87.5156 1671.15 87.5156C1664.12 87.5156 1658.84 90.0469 1655.33 95.1094C1651.86 100.125 1650.08 107.93 1649.98 118.523V126.258C1649.98 137.32 1651.65 145.406 1654.98 150.516C1658.35 155.625 1663.65 158.18 1670.87 158.18C1677.38 158.18 1682.23 156.703 1685.42 153.75C1688.66 150.75 1690.51 146.133 1690.98 139.898H1712.07ZM1783.72 152.906H1746.73L1739.7 174H1717.27L1755.38 71.625H1774.93L1813.25 174H1790.82L1783.72 152.906ZM1752.43 135.82H1778.02L1765.16 97.5L1752.43 135.82ZM1860.71 136.523H1843.91V174H1822.81V71.625H1860.85C1872.95 71.625 1882.27 74.3203 1888.84 79.7109C1895.4 85.1016 1898.68 92.7188 1898.68 102.562C1898.68 109.547 1897.16 115.383 1894.11 120.07C1891.11 124.711 1886.54 128.414 1880.4 131.18L1902.55 173.016V174H1879.91L1860.71 136.523ZM1843.91 119.438H1860.92C1866.22 119.438 1870.32 118.102 1873.23 115.43C1876.13 112.711 1877.59 108.984 1877.59 104.25C1877.59 99.4219 1876.2 95.625 1873.44 92.8594C1870.72 90.0938 1866.52 88.7109 1860.85 88.7109H1843.91V119.438ZM1976.38 129.633H1935.88V157.055H1983.41V174H1914.78V71.625H1983.27V88.7109H1935.88V113.109H1976.38V129.633Z" fill="#00366F"/>
</svg>
